<?xml version="1.0" encoding="UTF-8"?>
<svg version="1.1" xmlns="http://www.w3.org/2000/svg" width="326" height="278">
<path d="M0 0 C107.58 0 215.16 0 326 0 C326 91.74 326 183.48 326 278 C218.42 278 110.84 278 0 278 C0 186.26 0 94.52 0 0 Z " fill="#FEFDFC" transform="translate(0,0)"/>
<path d="M0 0 C0.11214844 0.85271484 0.11214844 0.85271484 0.2265625 1.72265625 C1.26806169 7.83891128 3.26351648 11.90940059 8 16 C12.87458719 19.10767925 18.43555382 18.5768914 24 18 C29.08905701 16.46593408 32.13126506 13.04054097 35.0546875 8.78125 C36.06710016 6.87356333 36.56528565 5.10882704 37 3 C42.4507841 3.57714185 47.09543775 4.94370661 52.1875 6.9375 C53.23454102 7.33485352 53.23454102 7.33485352 54.30273438 7.74023438 C57.61883904 9.01177593 60.86626793 10.32381773 64 12 C63.47731534 14.76276177 62.89130413 17.3260876 62 20 C61.52744039 27.08839408 62.83441909 31.71429103 66.8125 37.75 C70.56909759 41.61392895 74.09719324 43.16611045 79.4375 43.375 C83.92957462 43.2237517 87.01230391 42.0329431 91 40 C92.33285951 39.33238653 93.66608847 38.66550901 95 38 C96.0055761 39.45449401 97.00430435 40.91372443 98 42.375 C98.556875 43.18710937 99.11375 43.99921875 99.6875 44.8359375 C101 47 101 47 101 49 C101.66 49 102.32 49 103 49 C104.00508801 50.78881736 105.00392736 52.58114696 106 54.375 C106.556875 55.37273437 107.11375 56.37046875 107.6875 57.3984375 C109 60 109 60 109 62 C108.113125 62.37125 107.22625 62.7425 106.3125 63.125 C102.00325296 65.56419644 99.2462706 68.5074588 97 73 C96.51112268 78.80241278 96.14454562 84.15748286 98.625 89.5 C99.800625 90.7375 99.800625 90.7375 101 92 C101.845625 92.9075 102.69125 93.815 103.5625 94.75 C106.43055679 97.05990616 109.11269244 97.55490934 112.71484375 98.140625 C113.70476318 98.30594727 114.69468262 98.47126953 115.71459961 98.64160156 C116.8458728 98.81900879 116.8458728 98.81900879 118 99 C118.02898097 103.10415189 118.0467922 107.20827753 118.0625 111.3125 C118.07087891 112.47974609 118.07925781 113.64699219 118.08789062 114.84960938 C118.09111328 115.96787109 118.09433594 117.08613281 118.09765625 118.23828125 C118.10289307 119.26993408 118.10812988 120.30158691 118.11352539 121.36450195 C118 124 118 124 117 127 C116.29875 126.95359375 115.5975 126.9071875 114.875 126.859375 C108.38162579 126.61234446 103.21430437 126.83563475 98 131 C94.112527 135.02969762 92.67691055 138.93177403 92.4375 144.5 C92.69546094 149.65921879 93.82981595 153.86761951 97 158 C99.56399774 160.01119746 99.56399774 160.01119746 102 161 C101.47206073 165.30002711 100.077556 167.5779999 97.3125 170.875 C96.59707031 171.73609375 95.88164062 172.5971875 95.14453125 173.484375 C94.43683594 174.31453125 93.72914063 175.1446875 93 176 C92.38511719 176.72703125 91.77023438 177.4540625 91.13671875 178.203125 C89.76775088 179.8106004 88.38546199 181.40671871 87 183 C85.0269158 182.0351879 83.09641611 181.05768126 81.2109375 179.9296875 C75.87096048 176.86204112 71.1057909 175.8951426 65 177 C60.22409423 178.85456135 55.99151768 181.89488208 53.609375 186.5546875 C52.12513364 192.51068167 52.7369927 198.91430339 53 205 C50.60539412 205.81627446 48.20943474 206.62811645 45.8125 207.4375 C45.13896484 207.66759766 44.46542969 207.89769531 43.77148438 208.13476562 C37.59141721 210.21488579 32.52255832 211.1278933 26 211 C26 209.35 26 207.7 26 206 C25.34 206 24.68 206 24 206 C23.62875 205.0925 23.2575 204.185 22.875 203.25 C20.2312015 198.66741593 16.96381443 196.65460481 12 195 C5.71636723 194.42876066 0.55468379 194.73253895 -5 198 C-8.71412679 201.71412679 -10.67073385 204.92462014 -12 210 C-13.46063394 209.76381238 -14.91840663 209.50994589 -16.375 209.25 C-17.18710938 209.11078125 -17.99921875 208.9715625 -18.8359375 208.828125 C-23.35747944 207.64470909 -27.66044509 205.73582196 -32 204 C-32 158.13 -32 112.26 -32 65 C-23.42 65 -14.84 65 -6 65 C-4.02 68.3 -2.04 71.6 0 75 C1.6459651 76.68711423 3.31237149 78.3545622 5 80 C6.62307747 82.33191527 8.15794454 84.70289842 9.66796875 87.109375 C10.86988216 89.13227619 10.86988216 89.13227619 13 90 C13.21914062 89.34 13.43828125 88.68 13.6640625 88 C15.44913189 83.99142313 17.86204372 80.58426922 20.375 77 C20.85710937 76.30132812 21.33921875 75.60265625 21.8359375 74.8828125 C24.44466343 71.12568005 27.13267706 67.58415368 30 64 C38.58 64 47.16 64 56 64 C56 90.73 56 117.46 56 145 C47.75 145 39.5 145 31 145 C31 131.8 31 118.6 31 105 C30.34 105 29.68 105 29 105 C29 105.99 29 106.98 29 108 C27.69260536 109.35877696 26.35470049 110.68838186 25 112 C23.83001589 113.72025061 22.70654414 115.47281479 21.625 117.25 C18.65016009 122.03672944 15.47105781 126.56264038 12 131 C8.51944286 127.81146239 6.04404871 124.22733541 3.5625 120.25 C3.19318359 119.66734375 2.82386719 119.0846875 2.44335938 118.484375 C-0.39196779 114.00288735 -3.18943373 109.49690602 -6 105 C-6.33 127.44 -6.66 149.88 -7 173 C5.75164638 174.4168496 17.94557365 175.12313246 30.5 172.1875 C31.2115625 172.0222583 31.923125 171.8570166 32.65625 171.68676758 C36.32530211 170.73501761 38.48008151 169.79095624 41 167 C42.66417255 166.32713156 44.33113887 165.66115411 46 165 C49.79084152 162.50036214 53.38166901 159.74180768 57 157 C57.59425781 156.57589844 58.18851563 156.15179688 58.80078125 155.71484375 C70.10799699 147.21157369 75.86510931 131.60083655 78.56640625 118.1875 C81.05584127 99.8867885 77.50457133 81.29053256 67 66 C66.44828125 65.16597656 65.8965625 64.33195312 65.328125 63.47265625 C56.23288868 50.85981784 39.97522307 42.62791724 24.984375 39.5078125 C4.27284816 36.41963437 -12.93730925 40.08224309 -30 52 C-38.47732378 58.41924518 -45.18220969 66.00102538 -49 76 C-49.65956883 77.2329899 -50.3267049 78.46195161 -51 79.6875 C-58.30419859 94.49254868 -57.89167517 112.24800782 -53.15625 127.7734375 C-51.85704625 131.39891825 -50.44369888 134.91176187 -48.734375 138.36328125 C-48 140 -48 140 -48 142 C-47.34 142 -46.68 142 -46 142 C-43.14990607 144.98391962 -42.62923482 147.0702888 -42.65942383 151.13574219 C-42.65976372 152.66687653 -42.65976372 152.66687653 -42.66011047 154.22894287 C-42.67559433 155.32386047 -42.69107819 156.41877808 -42.70703125 157.546875 C-42.71127609 158.6732135 -42.71552094 159.799552 -42.71989441 160.96002197 C-42.73668503 164.55692463 -42.77433901 168.15326672 -42.8125 171.75 C-42.82754629 174.18879399 -42.84123479 176.62759677 -42.85351562 179.06640625 C-42.88658985 185.04446205 -42.93679357 191.02219097 -43 197 C-48.40288215 195.7952938 -51.80052721 192.49295771 -56 189 C-57.19882813 188.02353516 -57.19882813 188.02353516 -58.421875 187.02734375 C-69.28273528 177.77485927 -78.45876316 165.68887491 -85 153 C-85 152.01 -85 151.02 -85 150 C-82.34460559 148.00845419 -79.85158274 146.33117106 -76.75 145.125 C-74.78522287 144.06494618 -74.78522287 144.06494618 -73.75 141.625 C-72.41723167 135.18328641 -71.82117811 128.7676688 -74.4375 122.625 C-80.6614885 116.2492069 -86.05810047 113.28386983 -95 113 C-95.22823248 103.71854592 -94.90427108 95.13029973 -93 86 C-92.14277344 85.90203125 -91.28554687 85.8040625 -90.40234375 85.703125 C-79.05110234 84.22098109 -79.05110234 84.22098109 -70.5625 77 C-67.82047639 71.49221232 -67.85255135 64.60995081 -69.6953125 58.8125 C-71.91845713 54.47830208 -74.90096471 52.32899732 -79 50 C-78.67 49.01 -78.34 48.02 -78 47 C-77.01 46.505 -77.01 46.505 -76 46 C-75.05679238 44.31182529 -74.11485327 42.62291957 -73.18164062 40.92919922 C-71.25617416 37.78559674 -68.78848695 35.21758412 -66.25 32.5625 C-65.49009766 31.75135742 -65.49009766 31.75135742 -64.71484375 30.92382812 C-63.48259301 29.61020234 -62.24215581 28.3042636 -61 27 C-58.49552557 28.18829319 -56.57997286 29.33002133 -54.375 31.0625 C-49.24634335 34.00672882 -44.27743437 34.86921036 -38.49609375 33.3359375 C-33.82222123 31.44174864 -30.70283554 29.39210776 -28 25 C-27.505 23.515 -27.505 23.515 -27 22 C-26.34 22 -25.68 22 -25 22 C-25.99 14.08 -25.99 14.08 -27 6 C-24.27161565 5.18479365 -21.54235583 4.37275157 -18.8125 3.5625 C-18.04357422 3.33240234 -17.27464844 3.10230469 -16.48242188 2.86523438 C-10.93297132 1.22183485 -5.83600573 -0.16674302 0 0 Z " fill="#BF4A25" transform="translate(155,13)"/>
<path d="M0 0 C7.92 0 15.84 0 24 0 C24 26.07 24 52.14 24 79 C16.41 79 8.82 79 1 79 C0.24506706 52.65823279 -0.13483346 26.35245141 0 0 Z " fill="#1B1917" transform="translate(186,78)"/>
<path d="M0 0 C0.99 0 1.98 0 3 0 C3 0.66 3 1.32 3 2 C3.969375 1.979375 4.93875 1.95875 5.9375 1.9375 C9 2 9 2 10 3 C11.42561265 2.63770588 12.84097838 2.23473992 14.25 1.8125 C16.69921875 1.21484375 16.69921875 1.21484375 19 1 C22.0625 2.875 22.0625 2.875 24 5 C23.67 5.99 23.34 6.98 23 8 C19.7 8 16.4 8 13 8 C13.66 9.98 14.32 11.96 15 14 C17.64 14 20.28 14 23 14 C22.34 14.99 21.68 15.98 21 17 C17.86809527 17.23199294 15.11234648 17.31298818 12.0703125 16.45703125 C9.63106803 15.91855653 7.71989324 16.11060237 5.25 16.4375 C4.45078125 16.53933594 3.6515625 16.64117187 2.828125 16.74609375 C2.22484375 16.82988281 1.6215625 16.91367188 1 17 C1 16.34 1 15.68 1 15 C0.34 15 -0.32 15 -1 15 C-1 15.66 -1 16.32 -1 17 C-2.65 17 -4.3 17 -6 17 C-6 16.34 -6 15.68 -6 15 C-6.53109375 15.32742187 -7.0621875 15.65484375 -7.609375 15.9921875 C-12.14492829 17.90423448 -17.15657851 17.10529177 -22 17 C-21.67 12.71 -21.34 8.42 -21 4 C-22.65 4 -24.3 4 -26 4 C-25.67 8.29 -25.34 12.58 -25 17 C-26.98 17 -28.96 17 -31 17 C-31 16.34 -31 15.68 -31 15 C-30.34 15 -29.68 15 -29 15 C-29 11.37 -29 7.74 -29 4 C-31.31 4 -33.62 4 -36 4 C-36 7.96 -36 11.92 -36 16 C-36.66 16 -37.32 16 -38 16 C-38 11.71 -38 7.42 -38 3 C-38.66 3 -39.32 3 -40 3 C-40 2.34 -40 1.68 -40 1 C-32.31604457 0.7862269 -25.43659188 0.98329712 -18 3 C-18 6.96 -18 10.92 -18 15 C-17.01 15 -16.02 15 -15 15 C-14.9175 14.401875 -14.835 13.80375 -14.75 13.1875 C-13.78423221 10.37067727 -12.51131433 9.52200868 -10 8 C-9.34 8 -8.68 8 -8 8 C-8.33 7.34 -8.66 6.68 -9 6 C-10.65 6.33 -12.3 6.66 -14 7 C-13.49396008 4.83125748 -13.00016187 3.00032373 -12 1 C-6.375 0.75 -6.375 0.75 -3 3 C-2.48828125 5.1640625 -2.48828125 5.1640625 -2.3125 7.625 C-2.21388672 8.85089844 -2.21388672 8.85089844 -2.11328125 10.1015625 C-2.05720703 11.04128906 -2.05720703 11.04128906 -2 12 C-1.90912109 10.82630859 -1.90912109 10.82630859 -1.81640625 9.62890625 C-1.73261719 8.61699219 -1.64882812 7.60507813 -1.5625 6.5625 C-1.48128906 5.55316406 -1.40007812 4.54382813 -1.31640625 3.50390625 C-1 1 -1 1 0 0 Z " fill="#DCBDB1" transform="translate(128,239)"/>
<path d="M0 0 C0 0.99 0 1.98 0 3 C-0.99 3.33 -1.98 3.66 -3 4 C-3.73323796 6.01508358 -3.73323796 6.01508358 -4 8 C-1.36 8 1.28 8 4 8 C4.66 9.65 5.32 11.3 6 13 C6.20367187 12.35546875 6.40734375 11.7109375 6.6171875 11.046875 C8 9 8 9 10.8203125 8.390625 C11.91085938 8.34421875 13.00140625 8.2978125 14.125 8.25 C15.22070312 8.19328125 16.31640625 8.1365625 17.4453125 8.078125 C18.70988281 8.03945312 18.70988281 8.03945312 20 8 C20 8.66 20 9.32 20 10 C21.98 10 23.96 10 26 10 C26 10.33 26 10.66 26 11 C24.35 11 22.7 11 21 11 C21 14.63 21 18.26 21 22 C22.65 22 24.3 22 26 22 C25.67 23.32 25.34 24.64 25 26 C17.59607843 26.1254902 17.59607843 26.1254902 14.625 25.5 C10.44488894 24.70378837 6.24272218 24.92585534 2 25 C0.61773984 22.23547967 0.90474613 19.9538637 0.9375 16.875 C0.94652344 15.77929688 0.95554688 14.68359375 0.96484375 13.5546875 C0.97644531 12.71164063 0.98804688 11.86859375 1 11 C-0.98 11 -2.96 11 -5 11 C-5 14.96 -5 18.92 -5 23 C-4.01 23 -3.02 23 -2 23 C-2 23.66 -2 24.32 -2 25 C-4.97 25 -7.94 25 -11 25 C-11 24.34 -11 23.68 -11 23 C-10.01 23 -9.02 23 -8 23 C-8 19.04 -8 15.08 -8 11 C-8.66 10.67 -9.32 10.34 -10 10 C-9.34 10 -8.68 10 -8 10 C-8.061875 8.741875 -8.12375 7.48375 -8.1875 6.1875 C-8.17801584 3.51296599 -8.16436153 2.28547002 -6.8125 -0.0625 C-4.26271335 -1.38135516 -2.68253902 -0.7975116 0 0 Z " fill="#F5E3D9" transform="translate(238,231)"/>
<path d="M0 0 C2.72869407 0.03287583 5.2966618 0.56397771 8 1 C8 2.32 8 3.64 8 5 C6.35 5 4.7 5 3 5 C3 7.97 3 10.94 3 14 C4.32 14 5.64 14 7 14 C7.04125 12.7625 7.0825 11.525 7.125 10.25 C7.5829346 6.66920585 7.87862482 6.11848529 10.625 3.4375 C14.66640775 1.71615966 16.7955521 1.86803326 21 3 C23.40450178 5.40450178 23.29609139 6.08233942 23.3125 9.375 C23.22758813 12.15027757 23.01730243 13.95566252 22 16.5625 C18.88617579 18.80056115 15.65284831 18.40255879 12 18 C11.319375 17.814375 10.63875 17.62875 9.9375 17.4375 C7.73075005 16.8145713 7.73075005 16.8145713 4.375 17.5625 C2.704375 17.7790625 2.704375 17.7790625 1 18 C-1.83075926 15.16924074 -1.47520297 12.94414554 -1.75 9 C-1.84796875 7.741875 -1.9459375 6.48375 -2.046875 5.1875 C-2 2 -2 2 0 0 Z " fill="#B68674" transform="translate(62,238)"/>
<path d="M0 0 C6.27 0 12.54 0 19 0 C18.67 1.32 18.34 2.64 18 4 C16.68 4 15.36 4 14 4 C13.67 7.3 13.34 10.6 13 14 C14.32 14 15.64 14 17 14 C17 14.66 17 15.32 17 16 C10.565 16.495 10.565 16.495 4 17 C4 16.01 4 15.02 4 14 C3.443125 14.33 2.88625 14.66 2.3125 15 C-0.30284522 16.1309601 -2.1806646 16.15662974 -5 16 C-6.41634833 13.16730334 -6.3463005 10.52533562 -6.5625 7.375 C-6.64628906 6.18648437 -6.73007813 4.99796875 -6.81640625 3.7734375 C-6.87699219 2.85820312 -6.93757812 1.94296875 -7 1 C-6.01 1 -5.02 1 -4 1 C-4 4.96 -4 8.92 -4 13 C-2.02 12.67 -0.04 12.34 2 12 C2.33 8.7 2.66 5.4 3 2 C2.01 2 1.02 2 0 2 C0 1.34 0 0.68 0 0 Z " fill="#DEC2B6" transform="translate(200,240)"/>
<path d="M0 0 C6.27 0 12.54 0 19 0 C18.67 1.32 18.34 2.64 18 4 C16.68 4 15.36 4 14 4 C13.67 7.3 13.34 10.6 13 14 C14.32 14 15.64 14 17 14 C17 14.66 17 15.32 17 16 C12.71 16 8.42 16 4 16 C4 15.34 4 14.68 4 14 C3.443125 14.33 2.88625 14.66 2.3125 15 C-0.30284522 16.1309601 -2.1806646 16.15662974 -5 16 C-6.41634833 13.16730334 -6.3463005 10.52533562 -6.5625 7.375 C-6.64628906 6.18648437 -6.73007812 4.99796875 -6.81640625 3.7734375 C-6.87699219 2.85820312 -6.93757813 1.94296875 -7 1 C-6.01 1 -5.02 1 -4 1 C-4 4.96 -4 8.92 -4 13 C-2.02 12.67 -0.04 12.34 2 12 C2.33 8.7 2.66 5.4 3 2 C2.01 2 1.02 2 0 2 C0 1.34 0 0.68 0 0 Z " fill="#E1C7BA" transform="translate(275,240)"/>
<path d="M0 0 C2.25 1.5625 2.25 1.5625 4 3 C3.67 3.99 3.34 4.98 3 6 C-0.3 6 -3.6 6 -7 6 C-6.34 7.98 -5.68 9.96 -5 12 C-2.36 12 0.28 12 3 12 C2.01 13.485 2.01 13.485 1 15 C-2.13190473 15.23199294 -4.88765352 15.31298818 -7.9296875 14.45703125 C-10.36893197 13.91855653 -12.28010676 14.11060237 -14.75 14.4375 C-15.54921875 14.53933594 -16.3484375 14.64117187 -17.171875 14.74609375 C-17.77515625 14.82988281 -18.3784375 14.91367188 -19 15 C-18 13 -18 13 -17 12 C-16.92773498 10.14712498 -16.9161878 8.29166122 -16.9375 6.4375 C-16.94652344 5.42558594 -16.95554688 4.41367188 -16.96484375 3.37109375 C-16.97644531 2.58863281 -16.98804688 1.80617187 -17 1 C-15.96875 1.04125 -14.9375 1.0825 -13.875 1.125 C-10.05331445 1.18628197 -10.05331445 1.18628197 -6.8125 -0.0625 C-3.8393818 -1.0535394 -2.82231542 -1.22300335 0 0 Z " fill="#F0E2D9" transform="translate(148,241)"/>
<path d="M0 0 C0 0.99 0 1.98 0 3 C-0.99 3.33 -1.98 3.66 -3 4 C-3.73323796 6.01508358 -3.73323796 6.01508358 -4 8 C-1.36 8 1.28 8 4 8 C4.66 9.65 5.32 11.3 6 13 C6.66 12.34 7.32 11.68 8 11 C8.99 11 9.98 11 11 11 C11 14.3 11 17.6 11 21 C8.69 21.33 6.38 21.66 4 22 C4 18.04 4 14.08 4 10 C-0.455 10.495 -0.455 10.495 -5 11 C-5 14.96 -5 18.92 -5 23 C-4.01 23 -3.02 23 -2 23 C-2 23.66 -2 24.32 -2 25 C-4.97 25 -7.94 25 -11 25 C-11 24.34 -11 23.68 -11 23 C-10.01 23 -9.02 23 -8 23 C-8 19.04 -8 15.08 -8 11 C-8.66 10.67 -9.32 10.34 -10 10 C-9.34 10 -8.68 10 -8 10 C-8.061875 8.741875 -8.12375 7.48375 -8.1875 6.1875 C-8.17801584 3.51296599 -8.16436153 2.28547002 -6.8125 -0.0625 C-4.26271335 -1.38135516 -2.68253902 -0.7975116 0 0 Z " fill="#FEF4EE" transform="translate(238,231)"/>
<path d="M0 0 C0.74121094 -0.020625 1.48242188 -0.04125 2.24609375 -0.0625 C5.4386076 -0.08542649 7.86044442 0.05948298 10.75 1.47265625 C12.68621801 3.7668729 12.67173756 4.97502712 12.5 7.9375 C12.46390625 8.74574219 12.4278125 9.55398437 12.390625 10.38671875 C12.32101563 11.30904297 12.32101563 11.30904297 12.25 12.25 C11.26 12.745 11.26 12.745 10.25 13.25 C9.755 8.3 9.755 8.3 9.25 3.25 C6.94 3.25 4.63 3.25 2.25 3.25 C2.19577053 4.6870809 2.15710277 6.12475462 2.125 7.5625 C2.10179687 8.36300781 2.07859375 9.16351563 2.0546875 9.98828125 C2.09182678 12.53388576 2.09182678 12.53388576 4.25 15.25 C2.375 14.9375 2.375 14.9375 0.25 14.25 C-2.04013653 10.8147952 -1.92842973 9.264669 -1.75 5.25 C-2.41 4.92 -3.07 4.59 -3.75 4.25 C-5.4 8.54 -7.05 12.83 -8.75 17.25 C-10.55030122 14.54954818 -11.68377066 12.18322119 -12.875 9.1875 C-13.22820312 8.30964844 -13.58140625 7.43179688 -13.9453125 6.52734375 C-14.75 4.25 -14.75 4.25 -14.75 2.25 C-15.41 1.92 -16.07 1.59 -16.75 1.25 C-11.13952421 0.46301018 -5.66369767 0.04023942 0 0 Z " fill="#BB9080" transform="translate(176.75,239.75)"/>
<path d="M0 0 C0.99 0 1.98 0 3 0 C3.25394531 0.83402344 3.50789063 1.66804687 3.76953125 2.52734375 C5.76397341 9.04849732 7.81072433 15.54163676 10 22 C9.01 22 8.02 22 7 22 C6.34 19.69 5.68 17.38 5 15 C2.03 15 -0.94 15 -4 15 C-4.33 16.98 -4.66 18.96 -5 21 C-4.34 21 -3.68 21 -3 21 C-3 21.66 -3 22.32 -3 23 C-5.31 23 -7.62 23 -10 23 C-10 22.34 -10 21.68 -10 21 C-9.34 20.67 -8.68 20.34 -8 20 C-6.97054008 17.9832401 -6.97054008 17.9832401 -6.0546875 15.52734375 C-5.70019531 14.62822266 -5.34570312 13.72910156 -4.98046875 12.80273438 C-4.61566406 11.85720703 -4.25085938 10.91167969 -3.875 9.9375 C-3.50246094 8.98810547 -3.12992188 8.03871094 -2.74609375 7.06054688 C-1.82452835 4.7093736 -0.90948198 2.35586803 0 0 Z " fill="#D7B9AB" transform="translate(30,233)"/>
<path d="M0 0 C1.875 0.9375 1.875 0.9375 4.875 2.9375 C4.545 4.2575 4.215 5.5775 3.875 6.9375 C1.565 7.2675 -0.745 7.5975 -3.125 7.9375 C-2.795 8.9275 -2.465 9.9175 -2.125 10.9375 C4.805 11.4325 4.805 11.4325 11.875 11.9375 C11.215 13.2575 10.555 14.5775 9.875 15.9375 C7.60578464 16.07239391 5.3342933 16.16943995 3.0625 16.25 C1.16564453 16.33701172 1.16564453 16.33701172 -0.76953125 16.42578125 C-4.125 15.9375 -4.125 15.9375 -6.04296875 13.60546875 C-7.36288687 10.35094141 -7.70485618 8.4166371 -7.125 4.9375 C-3.26943084 -0.09615973 -3.26943084 -0.09615973 0 0 Z " fill="#F4DED3" transform="translate(303.125,240.0625)"/>
<path d="M0 0 C7.68395543 -0.2137731 14.56340812 -0.01670288 22 2 C22 6.29 22 10.58 22 15 C21.34 15 20.68 15 20 15 C19.67 11.37 19.34 7.74 19 4 C16.525 3.505 16.525 3.505 14 3 C14.33 7.29 14.66 11.58 15 16 C13.02 16 11.04 16 9 16 C9 15.34 9 14.68 9 14 C9.66 14 10.32 14 11 14 C11 10.37 11 6.74 11 3 C8.69 3 6.38 3 4 3 C4 6.96 4 10.92 4 15 C3.34 15 2.68 15 2 15 C2 10.71 2 6.42 2 2 C1.34 2 0.68 2 0 2 C0 1.34 0 0.68 0 0 Z " fill="#BB8E7C" transform="translate(88,240)"/>
<path d="M0 0 C1.65 0 3.3 0 5 0 C3.68 0.33 2.36 0.66 1 1 C1 1.66 1 2.32 1 3 C1.66 3 2.32 3 3 3 C3 7.29 3 11.58 3 16 C3.66 16 4.32 16 5 16 C5 12.04 5 8.08 5 4 C7.31 4 9.62 4 12 4 C12 7.63 12 11.26 12 15 C11.34 15 10.68 15 10 15 C10 15.66 10 16.32 10 17 C7.03 17 4.06 17 1 17 C1 13.7 1 10.4 1 7 C0.34 8.98 -0.32 10.96 -1 13 C-1.33 13 -1.66 13 -2 13 C-2.05447047 11.58376784 -2.09300508 10.16691809 -2.125 8.75 C-2.14820312 7.96109375 -2.17140625 7.1721875 -2.1953125 6.359375 C-1.9828378 3.79268059 -1.28654105 2.2083933 0 0 Z " fill="#EEDACE" transform="translate(87,239)"/>
<path d="M0 0 C2.33944736 0.28730055 4.6739143 0.61936779 7 1 C7.66 3.97 8.32 6.94 9 10 C9.33 7.69 9.66 5.38 10 3 C10.33 3 10.66 3 11 3 C11 5.97 11 8.94 11 12 C7.38863788 13.80568106 6.455469 14.24851563 2.75 14.125 C0.89375 14.063125 0.89375 14.063125 -1 14 C-0.34 13.34 0.32 12.68 1 12 C0.34 11.34 -0.32 10.68 -1 10 C-1.23046875 7.87109375 -1.23046875 7.87109375 -1.1875 5.4375 C-1.18105469 4.63183594 -1.17460937 3.82617188 -1.16796875 2.99609375 C-1 1 -1 1 0 0 Z " fill="#FAF2ED" transform="translate(179,242)"/>
<path d="M0 0 C0.33 0 0.66 0 1 0 C1 22.44 1 44.88 1 68 C7.89464272 68.82633206 7.89464272 68.82633206 14.71875 69.1328125 C15.50636719 69.13410156 16.29398438 69.13539063 17.10546875 69.13671875 C17.89566406 69.13285156 18.68585938 69.12898438 19.5 69.125 C20.29019531 69.12886719 21.08039063 69.13273437 21.89453125 69.13671875 C27.33341063 69.12781715 32.60366231 68.67993855 38 68 C38 68.66 38 69.32 38 70 C31.90076752 71.45634883 25.71827473 71.18600999 19.48803711 71.18530273 C17.3088875 71.18750365 15.13023304 71.20572925 12.95117188 71.22460938 C11.56771006 71.22754101 10.18424585 71.22952734 8.80078125 71.23046875 C7.54434814 71.23457764 6.28791504 71.23868652 4.9934082 71.24291992 C2 71 2 71 0 69 C-0.24050903 66.13998413 -0.24050903 66.13998413 -0.22705078 62.43896484 C-0.22734283 61.76567642 -0.22763489 61.092388 -0.22793579 60.3986969 C-0.22654047 58.16931346 -0.21097016 55.94026268 -0.1953125 53.7109375 C-0.19158308 52.16680077 -0.18873577 50.62266167 -0.18673706 49.07852173 C-0.17909499 45.01124557 -0.15944168 40.94411189 -0.1373291 36.87689209 C-0.11688296 32.7278435 -0.10773799 28.57877193 -0.09765625 24.4296875 C-0.07619625 16.28639289 -0.04205349 8.14321416 0 0 Z " fill="#AC664F" transform="translate(147,118)"/>
<path d="M0 0 C2.72869407 0.03287583 5.2966618 0.56397771 8 1 C8 2.32 8 3.64 8 5 C6.35 5 4.7 5 3 5 C3 7.97 3 10.94 3 14 C4.32 14 5.64 14 7 14 C7.33 11.36 7.66 8.72 8 6 C8.66 6.33 9.32 6.66 10 7 C9.95875 7.9075 9.9175 8.815 9.875 9.75 C9.99793147 12.94621811 10.50035549 14.28410836 12 17 C10.20991533 17.22151549 8.41781838 17.42682213 6.625 17.625 C5.62726563 17.74101562 4.62953125 17.85703125 3.6015625 17.9765625 C2.74304688 17.98429687 1.88453125 17.99203125 1 18 C-1.83075926 15.16924074 -1.47520297 12.94414554 -1.75 9 C-1.84796875 7.741875 -1.9459375 6.48375 -2.046875 5.1875 C-2 2 -2 2 0 0 Z " fill="#EFDCD0" transform="translate(62,238)"/>
<path d="M0 0 C0.66 0 1.32 0 2 0 C4.85009393 2.98391962 5.37076518 5.0702888 5.34057617 9.13574219 C5.34034958 10.15649841 5.34012299 11.17725464 5.33988953 12.22894287 C5.32440567 13.32386047 5.30892181 14.41877808 5.29296875 15.546875 C5.28872391 16.6732135 5.28447906 17.799552 5.28010559 18.96002197 C5.26331497 22.55692463 5.22566099 26.15326672 5.1875 29.75 C5.17245371 32.18879399 5.15876521 34.62759677 5.14648438 37.06640625 C5.11341015 43.04446205 5.06320643 49.02219097 5 55 C1.21369298 54.24432948 -0.4041044 52.87402727 -3 50 C-1.02 50.66 0.96 51.32 3 52 C2.67 36.16 2.34 20.32 2 4 C1.34 3.67 0.68 3.34 0 3 C0 2.01 0 1.02 0 0 Z " fill="#C07861" transform="translate(107,155)"/>
<path d="M0 0 C0.33 0.99 0.66 1.98 1 3 C-1.78711655 5.78711655 -4.15777513 6.14617225 -8 7 C-10.97 7 -13.94 7 -17 7 C-17.33 14.59 -17.66 22.18 -18 30 C-14.7 30.33 -11.4 30.66 -8 31 C-7.34 32.32 -6.68 33.64 -6 35 C-6.639375 34.690625 -7.27875 34.38125 -7.9375 34.0625 C-11.92049104 32.68064597 -15.81650849 32.3463457 -20 32 C-20.22823248 22.71854592 -19.90427108 14.13029973 -18 5 C-16.67935547 4.83564453 -16.67935547 4.83564453 -15.33203125 4.66796875 C-13.58986328 4.43013672 -13.58986328 4.43013672 -11.8125 4.1875 C-10.66394531 4.03667969 -9.51539062 3.88585937 -8.33203125 3.73046875 C-4.98163973 2.99597495 -2.8070271 1.92950074 0 0 Z " fill="#B66246" transform="translate(80,94)"/>
<path d="M0 0 C2.18553681 1.128019 4.03856898 2.44016381 5.9375 4 C5.6075 4.99 5.2775 5.98 4.9375 7 C1.6375 7 -1.6625 7 -5.0625 7 C-4.4025 8.98 -3.7425 10.96 -3.0625 13 C-0.4225 13 2.2175 13 4.9375 13 C3.9475 14.485 3.9475 14.485 2.9375 16 C-0.5 16.5 -0.5 16.5 -4.0625 16 C-6.453259 13.37787723 -6.98267856 11.47892866 -7.5625 8 C-6.87498115 3.8748869 -4.60444654 0 0 0 Z " fill="#CAB0A3" transform="translate(146.0625,240)"/>
<path d="M0 0 C0 0.66 0 1.32 0 2 C-1.65 2 -3.3 2 -5 2 C-5 4.64 -5 7.28 -5 10 C-4.01 10.33 -3.02 10.66 -2 11 C-2.99 11 -3.98 11 -5 11 C-5 14.96 -5 18.92 -5 23 C-4.01 23 -3.02 23 -2 23 C-2 23.66 -2 24.32 -2 25 C-4.97 25 -7.94 25 -11 25 C-11 24.34 -11 23.68 -11 23 C-10.01 23 -9.02 23 -8 23 C-8 19.04 -8 15.08 -8 11 C-8.66 10.67 -9.32 10.34 -10 10 C-9.34 10 -8.68 10 -8 10 C-8.061875 8.741875 -8.12375 7.48375 -8.1875 6.1875 C-8.17801584 3.51296599 -8.16436153 2.28547002 -6.8125 -0.0625 C-4.26271335 -1.38135516 -2.68253902 -0.7975116 0 0 Z " fill="#BB8878" transform="translate(238,231)"/>
<path d="M0 0 C0.99 0 1.98 0 3 0 C3 0.66 3 1.32 3 2 C4.37285156 1.96519531 4.37285156 1.96519531 5.7734375 1.9296875 C6.96195312 1.91164062 8.15046875 1.89359375 9.375 1.875 C10.55835938 1.85179687 11.74171875 1.82859375 12.9609375 1.8046875 C16 2 16 2 18 4 C19.32 4 20.64 4 22 4 C22.02688151 5.64574566 22.04634123 7.29161413 22.0625 8.9375 C22.07410156 9.85402344 22.08570313 10.77054688 22.09765625 11.71484375 C22 14 22 14 21 15 C19.02 15 17.04 15 15 15 C15 11.04 15 7.08 15 3 C13.453125 3.2784375 13.453125 3.2784375 11.875 3.5625 C8.23851558 3.97307082 5.54562991 3.778309 2 3 C2 2.34 2 1.68 2 1 C1.34 0.67 0.68 0.34 0 0 Z " fill="#F7E8E0" transform="translate(256,238)"/>
<path d="M0 0 C0.99 0 1.98 0 3 0 C3 3.96 3 7.92 3 12 C6.465 11.505 6.465 11.505 10 11 C9.67 7.37 9.34 3.74 9 0 C9.99 0 10.98 0 12 0 C12.33 4.62 12.66 9.24 13 14 C7.06 14.495 7.06 14.495 1 15 C-0.44207941 12.11584117 -0.09394887 9.58278472 -0.0625 6.375 C-0.05347656 5.18648437 -0.04445312 3.99796875 -0.03515625 2.7734375 C-0.02355469 1.85820312 -0.01195312 0.94296875 0 0 Z " fill="#B88B79" transform="translate(239,241)"/>
<path d="M0 0 C2.04468793 0.03704592 4.08757579 0.04101384 6.13256836 0.04052734 C12.56518777 0.09736934 17.97311685 0.45929859 24.08374023 2.41162109 C24.08374023 3.07162109 24.08374023 3.73162109 24.08374023 4.41162109 C17.40557365 3.47667777 17.40557365 3.47667777 14.53295898 2.89599609 C-1.87586892 0.59169863 -17.66024294 1.54121062 -31.91625977 10.41162109 C-32.57625977 10.41162109 -33.23625977 10.41162109 -33.91625977 10.41162109 C-33.91625977 8.41162109 -33.91625977 8.41162109 -31.91625977 6.41162109 C-30.59625977 6.41162109 -29.27625977 6.41162109 -27.91625977 6.41162109 C-27.91625977 5.75162109 -27.91625977 5.09162109 -27.91625977 4.41162109 C-18.49145892 1.16549494 -10.00361655 -0.18730176 0 0 Z " fill="#BC6E53" transform="translate(164.916259765625,49.58837890625)"/>
<path d="M0 0 C3.16115776 1.36983503 3.9927092 1.9890638 6 5 C5.236875 5.144375 4.47375 5.28875 3.6875 5.4375 C-0.67878965 6.35137458 -2.53385088 7.31283192 -5.375 10.6875 C-5.9834375 11.40679687 -6.591875 12.12609375 -7.21875 12.8671875 C-7.8065625 13.57101563 -8.394375 14.27484375 -9 15 C-9.75796875 15.87011719 -9.75796875 15.87011719 -10.53125 16.7578125 C-12.6177848 19.17188474 -13.97971122 20.93913365 -15 24 C-15.99 23.67 -16.98 23.34 -18 23 C-17.505 21.515 -17.505 21.515 -17 20 C-16.34 19.67 -15.68 19.34 -15 19 C-14.05679238 17.31182529 -13.11485327 15.62291957 -12.18164062 13.92919922 C-10.25617416 10.78559674 -7.78848695 8.21758412 -5.25 5.5625 C-4.49009766 4.75135742 -4.49009766 4.75135742 -3.71484375 3.92382812 C-2.48259301 2.61020234 -1.24215581 1.3042636 0 0 Z " fill="#B96348" transform="translate(94,40)"/>
<path d="M0 0 C0.99 0 1.98 0 3 0 C3 3.96 3 7.92 3 12 C4.98 11.67 6.96 11.34 9 11 C9.33 7.7 9.66 4.4 10 1 C9.34 0.67 8.68 0.34 8 0 C9.65 0 11.3 0 13 0 C13 4.62 13 9.24 13 14 C11.35 14 9.7 14 8 14 C7.67 14.33 7.34 14.66 7 15 C5.33382885 15.04063832 3.66611905 15.042721 2 15 C0.58365167 12.16730334 0.6536995 9.52533562 0.4375 6.375 C0.35371094 5.18648437 0.26992188 3.99796875 0.18359375 2.7734375 C0.12300781 1.85820312 0.06242187 0.94296875 0 0 Z " fill="#AF7B68" transform="translate(43,241)"/>
<path d="M0 0 C1.2684375 0.12375 1.2684375 0.12375 2.5625 0.25 C5.25711986 4.29192978 4.79450889 6.4551496 4.5625 11.25 C3.5625 12.25 3.5625 12.25 1.125 12.4375 C-1.4375 12.25 -1.4375 12.25 -3.4375 10.25 C-3.66796875 8.12109375 -3.66796875 8.12109375 -3.625 5.6875 C-3.61855469 4.88183594 -3.61210938 4.07617188 -3.60546875 3.24609375 C-3.35625521 0.28450961 -2.97452264 0.30507925 0 0 Z " fill="#FBF5F0" transform="translate(77.4375,241.75)"/>
<path d="M0 0 C2.83328987 2.83328987 3.7191375 4.35446828 5 8 C4.01 7.67 3.02 7.34 2 7 C1.67 27.13 1.34 47.26 1 68 C1.99 68.33 2.98 68.66 4 69 C2.68 69 1.36 69 0 69 C0 46.23 0 23.46 0 0 Z " fill="#F4DAC7" transform="translate(148,117)"/>
<path d="M0 0 C0.33 0.66 0.66 1.32 1 2 C1.66 2 2.32 2 3 2 C2.35812082 7.13503344 1.31727753 11.9943454 0 17 C-1.80030122 14.29954818 -2.93377066 11.93322119 -4.125 8.9375 C-4.47820312 8.05964844 -4.83140625 7.18179688 -5.1953125 6.27734375 C-6 4 -6 4 -6 2 C-6.66 1.67 -7.32 1.34 -8 1 C-5.36 0.67 -2.72 0.34 0 0 Z " fill="#FCEFE8" transform="translate(168,240)"/>
<path d="M0 0 C3.3 0 6.6 0 10 0 C11.38226016 2.76452033 11.09525387 5.0461363 11.0625 8.125 C11.05347656 9.22070312 11.04445313 10.31640625 11.03515625 11.4453125 C11.02355469 12.28835937 11.01195312 13.13140625 11 14 C10.01 14 9.02 14 8 14 C8 14.66 8 15.32 8 16 C6.68 15.67 5.36 15.34 4 15 C4.66 15 5.32 15 6 15 C6 10.38 6 5.76 6 1 C4.02 1.33 2.04 1.66 0 2 C0 1.34 0 0.68 0 0 Z " fill="#F3E2D8" transform="translate(50,240)"/>
<path d="M0 0 C0.99 0 1.98 0 3 0 C3 3.96 3 7.92 3 12 C4.98 11.67 6.96 11.34 9 11 C9.33 7.7 9.66 4.4 10 1 C9.34 0.67 8.68 0.34 8 0 C9.32 0 10.64 0 12 0 C12.33 4.62 12.66 9.24 13 14 C11.35 14 9.7 14 8 14 C7.67 14.33 7.34 14.66 7 15 C5.33382885 15.04063832 3.66611905 15.042721 2 15 C0.58365167 12.16730334 0.6536995 9.52533562 0.4375 6.375 C0.35371094 5.18648437 0.26992187 3.99796875 0.18359375 2.7734375 C0.12300781 1.85820312 0.06242188 0.94296875 0 0 Z " fill="#A7725F" transform="translate(193,241)"/>
<path d="M0 0 C0.99 0 1.98 0 3 0 C3 3.96 3 7.92 3 12 C4.98 11.67 6.96 11.34 9 11 C9 7.37 9 3.74 9 0 C9.99 0 10.98 0 12 0 C12.33 4.62 12.66 9.24 13 14 C11.35 14 9.7 14 8 14 C7.67 14.33 7.34 14.66 7 15 C5.33382885 15.04063832 3.66611905 15.042721 2 15 C0.58365167 12.16730334 0.6536995 9.52533562 0.4375 6.375 C0.35371094 5.18648437 0.26992188 3.99796875 0.18359375 2.7734375 C0.12300781 1.85820312 0.06242187 0.94296875 0 0 Z " fill="#A56F5A" transform="translate(268,241)"/>
<path d="M0 0 C0.66 0 1.32 0 2 0 C2.33 4.95 2.66 9.9 3 15 C0.60539412 15.81627446 -1.79056526 16.62811645 -4.1875 17.4375 C-4.86103516 17.66759766 -5.53457031 17.89769531 -6.22851562 18.13476562 C-12.40858279 20.21488579 -17.47744168 21.1278933 -24 21 C-24 19.35 -24 17.7 -24 16 C-23.34 16 -22.68 16 -22 16 C-22 16.99 -22 17.98 -22 19 C-16.69762919 18.55224424 -12.03098141 17.81971668 -7 16 C-4.34283901 15.28851973 -1.6743062 14.64552219 1 14 C0.83628906 13.44828125 0.67257813 12.8965625 0.50390625 12.328125 C-0.05760414 9.73385993 -0.09739008 7.40164589 -0.0625 4.75 C-0.05347656 3.85796875 -0.04445312 2.9659375 -0.03515625 2.046875 C-0.02355469 1.37140625 -0.01195312 0.6959375 0 0 Z " fill="#B35C42" transform="translate(205,203)"/>
<path d="M0 0 C1.65 0 3.3 0 5 0 C4.34 0.66 3.68 1.32 3 2 C2.97893406 5.36423199 2.97893406 5.36423199 3.375 9.125 C3.48585938 10.40632812 3.59671875 11.68765625 3.7109375 13.0078125 C3.80632813 13.99523437 3.90171875 14.98265625 4 16 C1.11788698 16.96070434 -0.69850044 17.10581883 -3.6875 17.0625 C-4.89986328 17.04896484 -4.89986328 17.04896484 -6.13671875 17.03515625 C-6.75160156 17.02355469 -7.36648437 17.01195312 -8 17 C-8 16.01 -8 15.02 -8 14 C-7.34 14 -6.68 14 -6 14 C-5.67 12.68 -5.34 11.36 -5 10 C-4.67 11.65 -4.34 13.3 -4 15 C-3.34 14.67 -2.68 14.34 -2 14 C-2.33 12.02 -2.66 10.04 -3 8 C-1.68 9.32 -0.36 10.64 1 12 C0.67 8.04 0.34 4.08 0 0 Z " fill="#F7E5D9" transform="translate(41,240)"/>
<path d="M0 0 C3.63 0.33 7.26 0.66 11 1 C11.02690305 5.10421014 11.04679208 9.20824497 11.0625 13.3125 C11.07087891 14.47974609 11.07925781 15.64699219 11.08789062 16.84960938 C11.09111328 17.96787109 11.09433594 19.08613281 11.09765625 20.23828125 C11.10289307 21.26993408 11.10812988 22.30158691 11.11352539 23.36450195 C11 26 11 26 10 29 C5.38 29 0.76 29 -4 29 C-3.505 27.515 -3.505 27.515 -3 26 C0.96 26 4.92 26 9 26 C9.33 18.08 9.66 10.16 10 2 C6.7 2 3.4 2 0 2 C0 1.34 0 0.68 0 0 Z " fill="#B0593E" transform="translate(262,111)"/>
<path d="M0 0 C5.4507841 0.57714185 10.09543775 1.94370661 15.1875 3.9375 C15.88552734 4.20240234 16.58355469 4.46730469 17.30273438 4.74023438 C20.61883904 6.01177593 23.86626793 7.32381773 27 9 C26.67 10.65 26.34 12.3 26 14 C25.38125 13.360625 24.7625 12.72125 24.125 12.0625 C22.17402388 9.96116416 22.17402388 9.96116416 20 9 C20 8.34 20 7.68 20 7 C19.34 7.061875 18.68 7.12375 18 7.1875 C15.1898992 7.0118687 13.61679345 6.54426968 11.0625 5.5 C7.58283915 4.09360956 4.78776262 3.7159178 1 4 C1 4.66 1 5.32 1 6 C0.34 6 -0.32 6 -1 6 C-0.67 4.02 -0.34 2.04 0 0 Z " fill="#B55A3E" transform="translate(192,16)"/>
<path d="M0 0 C1.875 0.9375 1.875 0.9375 4.875 2.9375 C4.875 3.5975 4.875 4.2575 4.875 4.9375 C2.565 5.2675 0.255 5.5975 -2.125 5.9375 C-0.805 5.6075 0.515 5.2775 1.875 4.9375 C1.545 4.2775 1.215 3.6175 0.875 2.9375 C-0.775 3.2675 -2.425 3.5975 -4.125 3.9375 C-4.33470559 8.07843698 -4.33470559 8.07843698 -3.125 11.9375 C-1.22966658 12.40273063 -1.22966658 12.40273063 0.9375 12.5625 C2.236875 12.68625 3.53625 12.81 4.875 12.9375 C3.885 14.4225 3.885 14.4225 2.875 15.9375 C-0.5625 16.4375 -0.5625 16.4375 -4.125 15.9375 C-6.515759 13.31537723 -7.04517856 11.41642866 -7.625 7.9375 C-6.93387979 3.79077874 -4.64296125 -0.13655768 0 0 Z " fill="#9E6552" transform="translate(303.125,240.0625)"/>
<path d="M0 0 C0.99 0 1.98 0 3 0 C3.25394531 0.83402344 3.50789063 1.66804687 3.76953125 2.52734375 C5.76397341 9.04849732 7.81072433 15.54163676 10 22 C9.01 22 8.02 22 7 22 C6.67 20.865625 6.34 19.73125 6 18.5625 C5.27812632 16.59506575 5.27812632 16.59506575 4 15 C1.20799134 14.030782 -0.99397579 14.04927909 -4 14 C-4 13.67 -4 13.34 -4 13 C-1.69 13 0.62 13 3 13 C2.505 11.783125 2.01 10.56625 1.5 9.3125 C0.27520559 6.07513262 -0.32803185 3.49900643 0 0 Z " fill="#AD6F5B" transform="translate(30,233)"/>
<path d="M0 0 C0.33 0 0.66 0 1 0 C1.33 13.2 1.66 26.4 2 40 C1.34 40 0.68 40 0 40 C0 40.99 0 41.98 0 43 C-0.66 43 -1.32 43 -2 43 C-1.75552124 42.23864746 -1.75552124 42.23864746 -1.50610352 41.46191406 C-0.82447434 38.14616462 -0.88891209 34.99415392 -0.90234375 31.609375 C-0.9037587 30.90476135 -0.90517365 30.20014771 -0.90663147 29.47418213 C-0.91221067 27.23274416 -0.92475927 24.99140757 -0.9375 22.75 C-0.94251769 21.22656395 -0.94708013 19.70312632 -0.95117188 18.1796875 C-0.96217326 14.45309228 -0.97942354 10.72655604 -1 7 C-3.475 8.485 -3.475 8.485 -6 10 C-4.63201951 6.0100569 -2.79608023 3.15686477 0 0 Z " fill="#B45C40" transform="translate(184,78)"/>
<path d="M0 0 C0.66 0 1.32 0 2 0 C2 0.66 2 1.32 2 2 C3.98 2 5.96 2 8 2 C8 2.33 8 2.66 8 3 C6.35 3 4.7 3 3 3 C3 6.63 3 10.26 3 14 C4.65 14 6.3 14 8 14 C8 14.66 8 15.32 8 16 C5.6739143 16.38063221 3.33944736 16.71269945 1 17 C-0.99520233 15.00479767 -0.45409364 11.23952834 -0.625 8.5 C-0.6765625 7.79746094 -0.728125 7.09492188 -0.78125 6.37109375 C-0.89838401 4.58307759 -0.95396301 2.79125732 -1 1 C-0.67 0.67 -0.34 0.34 0 0 Z " fill="#A96A55" transform="translate(256,239)"/>
<path d="M0 0 C0.99 0.33 1.98 0.66 3 1 C3.05434116 3.5419589 3.0938339 6.08273682 3.125 8.625 C3.14175781 9.33785156 3.15851563 10.05070312 3.17578125 10.78515625 C3.23068378 16.76953205 2.61233295 21.23036627 -1.5625 25.8125 C-5.3191368 28.72086397 -9.3801993 28.88707154 -14 29 C-11 27 -11 27 -8.0625 25.6875 C-3.74702103 23.30958301 -1.55336679 20.66010037 0 16 C0.66 16 1.32 16 2 16 C1.34 10.72 0.68 5.44 0 0 Z " fill="#BC6A50" transform="translate(128,19)"/>
<path d="M0 0 C1.65 0 3.3 0 5 0 C4.67 1.32 4.34 2.64 4 4 C5.65 3.34 7.3 2.68 9 2 C9.33 2.99 9.66 3.98 10 5 C8.5459375 5.8971875 8.5459375 5.8971875 7.0625 6.8125 C3.76947958 8.71127509 3.76947958 8.71127509 3 12 C2.01 12 1.02 12 0 12 C0 8.04 0 4.08 0 0 Z " fill="#FDF8F1" transform="translate(110,242)"/>
<path d="M0 0 C1.65 0 3.3 0 5 0 C5.05391993 1.79133978 5.09275571 3.58313899 5.125 5.375 C5.14820312 6.37273437 5.17140625 7.37046875 5.1953125 8.3984375 C5 11 5 11 3 13 C2.34 13 1.68 13 1 13 C-0.32229189 10.35541621 -0.09677194 8.32238699 -0.0625 5.375 C-0.05347656 4.37210938 -0.04445313 3.36921875 -0.03515625 2.3359375 C-0.02355469 1.56507813 -0.01195313 0.79421875 0 0 Z " fill="#FCF4EF" transform="translate(102,243)"/>
<path d="M0 0 C1.258125 0.33 2.51625 0.66 3.8125 1 C9.08444498 2.06192035 14.20680544 2.19167883 19.5625 2.1875 C20.35309814 2.18814453 21.14369629 2.18878906 21.95825195 2.18945312 C27.36724167 2.14017358 32.63278457 1.6702317 38 1 C38 1.66 38 2.32 38 3 C33.85758584 4.00013174 29.98519696 4.11516542 25.73046875 4.09765625 C25.04946609 4.0962413 24.36846344 4.09482635 23.66682434 4.09336853 C21.50700353 4.08780298 19.34728911 4.07525703 17.1875 4.0625 C15.71679838 4.05748054 14.24609512 4.05291841 12.77539062 4.04882812 C9.1835596 4.03784488 5.5917902 4.02060422 2 4 C1.34 2.68 0.68 1.36 0 0 Z " fill="#AF5538" transform="translate(147,185)"/>
<path d="M0 0 C0.66 0 1.32 0 2 0 C2 0.99 2 1.98 2 3 C3.65 3 5.3 3 7 3 C7 3.33 7 3.66 7 4 C5.35 4 3.7 4 2 4 C2 7.96 2 11.92 2 16 C2.99 16.33 3.98 16.66 5 17 C3.33388095 17.042721 1.66617115 17.04063832 0 17 C-1.93852748 15.06147252 -1.4850032 11.65288119 -1.6875 9.0625 C-1.79449219 7.79535156 -1.90148438 6.52820313 -2.01171875 5.22265625 C-2 2 -2 2 0 0 Z " fill="#B07562" transform="translate(62,238)"/>
<path d="M0 0 C0.66 0 1.32 0 2 0 C3.32 2.31 4.64 4.62 6 7 C5.34 7 4.68 7 4 7 C4 6.34 4 5.68 4 5 C0.53058454 5.45822468 -2.67395049 5.89131683 -6 7 C-8.28851645 7.14619515 -10.58200316 7.22091336 -12.875 7.25 C-14.08929688 7.27578125 -15.30359375 7.3015625 -16.5546875 7.328125 C-20.20672783 6.98031164 -22.05885669 6.12478034 -25 4 C-24.67 3.34 -24.34 2.68 -24 2 C-23.195625 2.495 -22.39125 2.99 -21.5625 3.5 C-16.62184893 5.58027414 -12.12050605 5.9219677 -6.9375 4.390625 C-4.1641325 3.2581666 -2.12582693 2.12582693 0 0 Z " fill="#B45C3F" transform="translate(248,51)"/>
<path d="M0 0 C2.97 0 5.94 0 9 0 C8.67 0.99 8.34 1.98 8 3 C6.68 3 5.36 3 4 3 C3.67 6.63 3.34 10.26 3 14 C2.01 14 1.02 14 0 14 C0 9.38 0 4.76 0 0 Z " fill="#AC7965" transform="translate(285,241)"/>
<path d="M0 0 C1.75570312 0.02707031 1.75570312 0.02707031 3.546875 0.0546875 C4.88492188 0.08949219 4.88492188 0.08949219 6.25 0.125 C6.25 0.785 6.25 1.445 6.25 2.125 C7.9 2.125 9.55 2.125 11.25 2.125 C11.58 3.115 11.91 4.105 12.25 5.125 C11.30125 4.795 10.3525 4.465 9.375 4.125 C2.60848896 2.20347557 -4.24663621 2.38674156 -10.75 5.125 C-10.75 4.135 -10.75 3.145 -10.75 2.125 C-7.15537669 -0.13498595 -4.18404325 -0.08368087 0 0 Z " fill="#B55637" transform="translate(224.75,186.875)"/>
<path d="M0 0 C3.465 1.98 3.465 1.98 7 4 C6.48055957 8.44321353 4.89162915 10.83253477 2.0625 14.25 C1.35222656 15.12140625 0.64195312 15.9928125 -0.08984375 16.890625 C-2 19 -2 19 -4 20 C-3.67 18.02 -3.34 16.04 -3 14 C-2.01 14 -1.02 14 0 14 C0 13.34 0 12.68 0 12 C0.66 12 1.32 12 2 12 C2 11.01 2 10.02 2 9 C2.66 9 3.32 9 4 9 C3.42618522 5.67187429 2.40619252 4.30157545 0 2 C0 1.34 0 0.68 0 0 Z " fill="#B45E43" transform="translate(250,170)"/>
<path d="M0 0 C0 0.66 0 1.32 0 2 C-0.66 2 -1.32 2 -2 2 C-2.2475 2.556875 -2.495 3.11375 -2.75 3.6875 C-4.21585054 6.3993235 -6.05455699 8.6152634 -8 11 C-9.38226016 13.76452033 -9.09525387 16.0461363 -9.0625 19.125 C-9.05347656 20.22070312 -9.04445312 21.31640625 -9.03515625 22.4453125 C-9.02355469 23.28835937 -9.01195312 24.13140625 -9 25 C-11.99284413 20.51073381 -11.71056646 16.26106279 -11 11 C-9.1231921 6.41640142 -5.56100616 0 0 0 Z " fill="#F8E2D5" transform="translate(258,141)"/>
<path d="M0 0 C0.33 0.99 0.66 1.98 1 3 C-2.19373157 6.19373157 -6.06829832 6.90188182 -10.4609375 7.125 C-12.64439214 7.125 -14.81849415 7.08904106 -17 7 C-17 8.65 -17 10.3 -17 12 C-17.66 12 -18.32 12 -19 12 C-18.67 9.69 -18.34 7.38 -18 5 C-16.67935547 4.83564453 -16.67935547 4.83564453 -15.33203125 4.66796875 C-13.58986328 4.43013672 -13.58986328 4.43013672 -11.8125 4.1875 C-10.66394531 4.03667969 -9.51539062 3.88585937 -8.33203125 3.73046875 C-4.98163973 2.99597495 -2.8070271 1.92950074 0 0 Z " fill="#B76144" transform="translate(80,94)"/>
<path d="M0 0 C-1.6396875 1.051875 -1.6396875 1.051875 -3.3125 2.125 C-6.8958249 4.75083727 -8.67303128 6.62880892 -10 11 C-10.2281945 15.34606798 -10.17414545 19.65281352 -10 24 C-10.66 23.67 -11.32 23.34 -12 23 C-12 17.39 -12 11.78 -12 6 C-11.01 6 -10.02 6 -9 6 C-8.7525 5.030625 -8.505 4.06125 -8.25 3.0625 C-7 0 -7 0 -5.0625 -0.9375 C-3 -1 -3 -1 0 0 Z " fill="#B45C3F" transform="translate(258,141)"/>
<path d="M0 0 C1.35242344 2.70484687 1 4.9993319 1 8 C1.33 8.99 1.66 9.98 2 11 C4.64 11 7.28 11 10 11 C9.01 12.485 9.01 12.485 8 14 C4.5625 14.5 4.5625 14.5 1 14 C-1.46944232 11.29157939 -1.94927858 9.50721422 -2.3125 5.875 C-2 3 -2 3 0 0 Z " fill="#B38371" transform="translate(141,242)"/>
<path d="M0 0 C0.33 0 0.66 0 1 0 C1.25 2.25 1.25 2.25 1 5 C-0.875 7.3125 -0.875 7.3125 -3 9 C-3.66 9 -4.32 9 -5 9 C-5.12375 9.763125 -5.2475 10.52625 -5.375 11.3125 C-6 14 -6 14 -8 17 C-9.32 16.67 -10.64 16.34 -12 16 C-11.67 15.34 -11.34 14.68 -11 14 C-10.34 14.33 -9.68 14.66 -9 15 C-8.74347656 14.28457031 -8.48695313 13.56914063 -8.22265625 12.83203125 C-6.91928089 9.81303082 -5.33862527 7.36653874 -3.4375 4.6875 C-2.81746094 3.80449219 -2.19742188 2.92148438 -1.55859375 2.01171875 C-0.78708984 1.01591797 -0.78708984 1.01591797 0 0 Z " fill="#BA6649" transform="translate(177,88)"/>
<path d="M0 0 C0.33 0 0.66 0 1 0 C2.38209147 6.01445216 2.22326082 11.98167334 2.25 18.125 C2.270625 19.31738281 2.29125 20.50976562 2.3125 21.73828125 C2.31765625 22.87910156 2.3228125 24.01992187 2.328125 25.1953125 C2.3374707 26.23703613 2.34681641 27.27875977 2.35644531 28.35205078 C1.95568829 31.32918134 1.34097722 32.2006152 -1 34 C-0.9285376 33.42459473 -0.8570752 32.84918945 -0.78344727 32.25634766 C0.00737648 25.2763784 0.11793665 18.39413308 0.0625 11.375 C0.05798828 10.27542969 0.05347656 9.17585938 0.04882812 8.04296875 C0.03717139 5.36191997 0.02081017 2.68099068 0 0 Z " fill="#D69E89" transform="translate(234,104)"/>
<path d="M0 0 C0.91007812 0.00902344 1.82015625 0.01804688 2.7578125 0.02734375 C3.80582031 0.04474609 3.80582031 0.04474609 4.875 0.0625 C-1.09609406 3.37977448 -7.02561117 3.24492621 -13.6875 3.25 C-14.53763672 3.26224609 -15.38777344 3.27449219 -16.26367188 3.28710938 C-17.49633789 3.29000977 -17.49633789 3.29000977 -18.75390625 3.29296875 C-19.49713135 3.29707764 -20.24035645 3.30118652 -21.00610352 3.30541992 C-23.40994353 3.02983278 -25.03643314 2.25457471 -27.125 1.0625 C-26.52961426 1.06773682 -25.93422852 1.07297363 -25.32080078 1.07836914 C-22.63054453 1.09911999 -19.94030511 1.11215407 -17.25 1.125 C-16.31285156 1.13337891 -15.37570313 1.14175781 -14.41015625 1.15039062 C-13.51425781 1.15361328 -12.61835938 1.15683594 -11.6953125 1.16015625 C-10.86789551 1.16539307 -10.04047852 1.17062988 -9.18798828 1.17602539 C-5.94813544 0.99773763 -3.43274354 -0.04400953 0 0 Z " fill="#EECDBE" transform="translate(180.125,184.9375)"/>
<path d="M0 0 C0.66 0.33 1.32 0.66 2 1 C-0.64 4.63 -3.28 8.26 -6 12 C-10.5 7.5 -10.5 7.5 -12 4 C-10.576875 4.495 -10.576875 4.495 -9.125 5 C-6.22937548 6.10159191 -6.22937548 6.10159191 -4 6 C-4 5.34 -4 4.68 -4 4 C-3.34 4 -2.68 4 -2 4 C-1.34 2.68 -0.68 1.36 0 0 Z " fill="#B1593D" transform="translate(173,132)"/>
<path d="M0 0 C0.66 1.32 1.32 2.64 2 4 C2.66 4 3.32 4 4 4 C5.00508801 5.78881736 6.00392736 7.58114696 7 9.375 C7.8353125 10.87160156 7.8353125 10.87160156 8.6875 12.3984375 C10 15 10 15 10 17 C9.01 17 8.02 17 7 17 C7 15.68 7 14.36 7 13 C6.34 13 5.68 13 5 13 C4.67 12.01 4.34 11.02 4 10 C3.34 9.67 2.68 9.34 2 9 C0.37265234 5.65489648 0 3.81164166 0 0 Z " fill="#B8694D" transform="translate(254,58)"/>
<path d="M0 0 C0.33 0.99 0.66 1.98 1 3 C-0.26652863 4.46207343 -1.53838918 5.91952926 -2.8125 7.375 C-3.52019531 8.18710938 -4.22789062 8.99921875 -4.95703125 9.8359375 C-7 12 -7 12 -10 14 C-12.1875 13.625 -12.1875 13.625 -14 13 C-13.15695313 12.31292969 -12.31390625 11.62585938 -11.4453125 10.91796875 C-10.33836843 10.0080232 -9.23160712 9.09785529 -8.125 8.1875 C-7.56941406 7.73568359 -7.01382813 7.28386719 -6.44140625 6.81835938 C-3.83422739 4.66665152 -1.88918122 2.83377184 0 0 Z " fill="#B86346" transform="translate(220,162)"/>
<path d="M0 0 C0.33 1.32 0.66 2.64 1 4 C0.236875 4.598125 -0.52625 5.19625 -1.3125 5.8125 C-2.199375 6.534375 -3.08625 7.25625 -4 8 C-4.598125 8.433125 -5.19625 8.86625 -5.8125 9.3125 C-7.73503334 12.04452107 -7.18260931 14.7739022 -7 18 C-9.89932357 15.60490662 -10.50168276 13.68754757 -11 10 C-5.36453202 6.15763547 -5.36453202 6.15763547 -2.6875 5 C-0.78570011 4.11681553 -0.78570011 4.11681553 -0.25 1.875 C-0.1675 1.25625 -0.085 0.6375 0 0 Z " fill="#B6664A" transform="translate(81,153)"/>
<path d="M0 0 C2.97 0 5.94 0 9 0 C8.67 0.99 8.34 1.98 8 3 C6.68 3 5.36 3 4 3 C3.67 6.63 3.34 10.26 3 14 C2.34 14 1.68 14 1 14 C0.67 9.38 0.34 4.76 0 0 Z " fill="#9E6852" transform="translate(210,241)"/>
<path d="M0 0 C0.33 0.66 0.66 1.32 1 2 C2.98 2 4.96 2 7 2 C7 2.33 7 2.66 7 3 C5.02 3 3.04 3 1 3 C1.11389875 4.79240663 1.24147687 6.58394835 1.375 8.375 C1.44460937 9.37273437 1.51421875 10.37046875 1.5859375 11.3984375 C1.76363964 14.15508879 1.76363964 14.15508879 4 16 C2.35 15.67 0.7 15.34 -1 15 C-1.02685412 12.68756208 -1.04632841 10.3750373 -1.0625 8.0625 C-1.07410156 6.77472656 -1.08570313 5.48695313 -1.09765625 4.16015625 C-1 1 -1 1 0 0 Z " fill="#A96C56" transform="translate(130,239)"/>
<path d="M0 0 C1.98 0 3.96 0 6 0 C5.67 0.66 5.34 1.32 5 2 C5.81417786 4.07217564 5.81417786 4.07217564 7 6.3125 C8.43601072 9.36156386 9.02912679 10.64319681 8.75 14.0625 C8.5025 14.701875 8.255 15.34125 8 16 C6.19969878 13.29954818 5.06622934 10.93322119 3.875 7.9375 C3.52179688 7.05964844 3.16859375 6.18179688 2.8046875 5.27734375 C2 3 2 3 2 1 C1.34 0.67 0.68 0.34 0 0 Z " fill="#AA6F5A" transform="translate(160,241)"/>
<path d="M0 0 C2.97 0 5.94 0 9 0 C9 0.66 9 1.32 9 2 C8.34 2 7.68 2 7 2 C7 6.62 7 11.24 7 16 C6.01 15.67 5.02 15.34 4 15 C4.66 15 5.32 15 6 15 C5.67 14.34 5.34 13.68 5 13 C4.92934383 10.95944995 4.91578024 8.91665743 4.9375 6.875 C4.94652344 5.77929688 4.95554688 4.68359375 4.96484375 3.5546875 C4.97644531 2.71164063 4.98804688 1.86859375 5 1 C3.35 1.33 1.7 1.66 0 2 C0 1.34 0 0.68 0 0 Z " fill="#E8CDC0" transform="translate(246,240)"/>
<path d="M0 0 C0.33 0 0.66 0 1 0 C1.33 2.31 1.66 4.62 2 7 C2.33 4.69 2.66 2.38 3 0 C3.33 0 3.66 0 4 0 C4 2.97 4 5.94 4 9 C0.38863788 10.80568106 -0.544531 11.24851563 -4.25 11.125 C-6.10625 11.063125 -6.10625 11.063125 -8 11 C-5.38058783 9.25372522 -3.96175123 8.61277612 -1 8 C-0.67 5.36 -0.34 2.72 0 0 Z " fill="#DDC5BB" transform="translate(186,245)"/>
<path d="M0 0 C3.63 0 7.26 0 11 0 C9.1875 2 9.1875 2 7 4 C6.01 4 5.02 4 4 4 C3.01 6.64 2.02 9.28 1 12 C-0.31223496 8.06329512 0.75703744 5.87511856 2 2 C1.34 2 0.68 2 0 2 C0 1.34 0 0.68 0 0 Z " fill="#D1B5A9" transform="translate(169,240)"/>
<path d="M0 0 C0.99 0 1.98 0 3 0 C3 3.96 3 7.92 3 12 C2.01 12 1.02 12 0 12 C0 8.04 0 4.08 0 0 Z " fill="#FEF8F2" transform="translate(207,242)"/>
<path d="M0 0 C6.14154225 0.58490879 12.00679849 1.54066252 18 3 C18 3.99 18 4.98 18 6 C11.68878497 4.9007105 5.93661416 3.41862058 0 1 C0 0.67 0 0.34 0 0 Z " fill="#B26044" transform="translate(125,217)"/>
<path d="M0 0 C1.65 0 3.3 0 5 0 C5 0.66 5 1.32 5 2 C8.3 2.33 11.6 2.66 15 3 C15 7.62 15 12.24 15 17 C14.67 17 14.34 17 14 17 C14 12.71 14 8.42 14 4 C12.205625 4.0928125 12.205625 4.0928125 10.375 4.1875 C6.26502405 4.20943937 3.5521739 3.13130434 0 1 C0 0.67 0 0.34 0 0 Z " fill="#E4B4A3" transform="translate(259,108)"/>
<path d="M0 0 C2.69282475 4.03923713 3.13300939 6.95536152 3.0625 11.75 C3.05347656 12.54921875 3.04445312 13.3484375 3.03515625 14.171875 C3.01775391 15.07679687 3.01775391 15.07679687 3 16 C2.34 16 1.68 16 1 16 C0.67 17.65 0.34 19.3 0 21 C-0.93423645 17.98968256 -1.04449911 17.13349732 0 14 C0.06970052 11.60509014 0.08448003 9.20832309 0.0625 6.8125 C0.05347656 5.54019531 0.04445313 4.26789062 0.03515625 2.95703125 C0.02355469 1.98121094 0.01195313 1.00539063 0 0 Z " fill="#F5DED3" transform="translate(127,19)"/>
<path d="M0 0 C2.31 0.33 4.62 0.66 7 1 C7 5.29 7 9.58 7 14 C6.34 14 5.68 14 5 14 C4.96132812 12.86111328 4.96132812 12.86111328 4.921875 11.69921875 C4.86515625 10.70535156 4.8084375 9.71148437 4.75 8.6875 C4.70359375 7.70136719 4.6571875 6.71523437 4.609375 5.69921875 C4.24029762 2.86059908 4.24029762 2.86059908 1.953125 1.14453125 C1.30859375 0.76683594 0.6640625 0.38914063 0 0 Z " fill="#AB725E" transform="translate(103,241)"/>
<path d="M0 0 C1.66611905 -0.042721 3.33382885 -0.04063832 5 0 C6.71867343 1.71867343 6.32920599 4.09213219 6.5 6.4375 C6.71419183 10.36434915 6.71419183 10.36434915 8 14 C6.68 13.67 5.36 13.34 4 13 C3.96261719 12.22914063 3.92523438 11.45828125 3.88671875 10.6640625 C3.82097656 9.66117188 3.75523438 8.65828125 3.6875 7.625 C3.62949219 6.62726563 3.57148437 5.62953125 3.51171875 4.6015625 C3.34285156 3.74304688 3.17398438 2.88453125 3 2 C2.01 1.34 1.02 0.68 0 0 Z " fill="#9B6451" transform="translate(117,241)"/>
<path d="M0 0 C1.0723969 3.68636433 1.04183175 6.97314114 0.9375 10.78125 C1.00005931 13.00210533 1.3812287 14.87297365 2 17 C2.66 17 3.32 17 4 17 C4.33 18.65 4.66 20.3 5 22 C1.93677384 19.95784923 0.31504476 18.4483396 -1 15 C-1.23046875 11.8359375 -1.23046875 11.8359375 -1.1875 8.375 C-1.18105469 7.22773437 -1.17460937 6.08046875 -1.16796875 4.8984375 C-1 2 -1 2 0 0 Z " fill="#F1D6C7" transform="translate(252,84)"/>
<path d="M0 0 C5.06998019 0.65419099 9.41990777 2.8546409 14 5 C13.67 6.65 13.34 8.3 13 10 C12.38125 9.360625 11.7625 8.72125 11.125 8.0625 C9.17402388 5.96116416 9.17402388 5.96116416 7 5 C7 4.34 7 3.68 7 3 C5.824375 3.0928125 5.824375 3.0928125 4.625 3.1875 C3.75875 3.125625 2.8925 3.06375 2 3 C1.34 2.01 0.68 1.02 0 0 Z " fill="#B86C54" transform="translate(205,20)"/>
<path d="M0 0 C4.62 0 9.24 0 14 0 C13.34 1.32 12.68 2.64 12 4 C9.69 4 7.38 4 5 4 C5.33 3.34 5.66 2.68 6 2 C3.03 1.505 3.03 1.505 0 1 C0 0.67 0 0.34 0 0 Z " fill="#E5D4CB" transform="translate(301,252)"/>
<path d="M0 0 C1.32 0.33 2.64 0.66 4 1 C4 3.31 4 5.62 4 8 C2.68 8 1.36 8 0 8 C0 5.36 0 2.72 0 0 Z " fill="#FEFBF8" transform="translate(93,244)"/>
<path d="M0 0 C1.32 0.66 2.64 1.32 4 2 C3.9278125 2.62648437 3.855625 3.25296875 3.78125 3.8984375 C3.6884375 4.71570313 3.595625 5.53296875 3.5 6.375 C3.4071875 7.18710938 3.314375 7.99921875 3.21875 8.8359375 C2.96647649 10.96912825 2.96647649 10.96912825 3 13 C2.34 13 1.68 13 1 13 C0.67 10.36 0.34 7.72 0 5 C-1.65 4.67 -3.3 4.34 -5 4 C-4.0409375 3.8453125 -4.0409375 3.8453125 -3.0625 3.6875 C-2.381875 3.460625 -1.70125 3.23375 -1 3 C-0.67 2.01 -0.34 1.02 0 0 Z " fill="#FBE9DF" transform="translate(294,240)"/>
<path d="M0 0 C0.99 0 1.98 0 3 0 C3 3.3 3 6.6 3 10 C2.01 10.33 1.02 10.66 0 11 C0 7.37 0 3.74 0 0 Z " fill="#FEF8F1" transform="translate(282,242)"/>
<path d="M0 0 C1.65 0 3.3 0 5 0 C4.01 0.66 3.02 1.32 2 2 C1.27617533 4.05925139 1.27617533 4.05925139 1 6 C3.64 6 6.28 6 9 6 C9 6.66 9 7.32 9 8 C3.375 9.125 3.375 9.125 0 8 C0 5.36 0 2.72 0 0 Z " fill="#F1DED4" transform="translate(233,233)"/>
<path d="M0 0 C1.26237731 2.52475462 1.09856404 4.31200466 1.0625 7.125 C1.05347656 8.03507813 1.04445312 8.94515625 1.03515625 9.8828125 C1.02355469 10.58148438 1.01195312 11.28015625 1 12 C0.01 12.495 0.01 12.495 -1 13 C-1.13277344 12.30132812 -1.26554688 11.60265625 -1.40234375 10.8828125 C-1.57894531 9.97273437 -1.75554687 9.06265625 -1.9375 8.125 C-2.11152344 7.22007812 -2.28554687 6.31515625 -2.46484375 5.3828125 C-2.89963701 3.00043683 -2.89963701 3.00043683 -4 1 C-2 0 -2 0 0 0 Z " fill="#FEF7EE" transform="translate(191,240)"/>
<path d="M0 0 C4.92461284 4.76575436 4.92461284 4.76575436 5.16796875 8.75 C5.17441406 9.8225 5.18085937 10.895 5.1875 12 C5.20167969 13.0725 5.21585937 14.145 5.23046875 15.25 C5 18 5 18 3 20 C3.03480469 19.18015625 3.06960937 18.3603125 3.10546875 17.515625 C3.13253906 16.43796875 3.15960938 15.3603125 3.1875 14.25 C3.22230469 13.18265625 3.25710937 12.1153125 3.29296875 11.015625 C2.96325961 7.6218189 2.07557874 6.5931115 0 4 C0 2.68 0 1.36 0 0 Z " fill="#E5C1B0" transform="translate(78,133)"/>
<path d="M0 0 C1.875 0.1875 1.875 0.1875 4 1 C6.27326808 5.16765815 6.24009295 9.18664881 6.125 13.8125 C6.11597656 14.50537109 6.10695313 15.19824219 6.09765625 15.91210938 C6.07426157 17.60822395 6.03839641 19.30415871 6 21 C5.34 21 4.68 21 4 21 C4.04640625 20.07058594 4.0928125 19.14117187 4.140625 18.18359375 C4.42792647 8.39259033 4.42792647 8.39259033 0 0 Z " fill="#B35638" transform="translate(78,132)"/>
<path d="M0 0 C0.99 0.33 1.98 0.66 3 1 C3.984375 3.58203125 3.984375 3.58203125 4.75 6.8125 C5.14445313 8.39998047 5.14445313 8.39998047 5.546875 10.01953125 C5.97222984 12.81733936 5.94056385 14.37531844 5 17 C4.16301614 14.54285453 3.33027576 12.08441143 2.5 9.625 C2.26152344 8.92632812 2.02304688 8.22765625 1.77734375 7.5078125 C0 2.2265625 0 2.2265625 0 0 Z " fill="#C1795D" transform="translate(228,87)"/>
<path d="M0 0 C0.99 0 1.98 0 3 0 C3.33 4.62 3.66 9.24 4 14 C3.01 13.67 2.02 13.34 1 13 C0.67 8.71 0.34 4.42 0 0 Z " fill="#A06149" transform="translate(248,241)"/>
<path d="M0 0 C5.28 1.65 10.56 3.3 16 5 C16 5.33 16 5.66 16 6 C14.0412957 5.85923685 12.08303907 5.7122324 10.125 5.5625 C9.03445312 5.48128906 7.94390625 5.40007812 6.8203125 5.31640625 C4 5 4 5 2 4 C2 3.34 2 2.68 2 2 C1.34 2 0.68 2 0 2 C0 1.34 0 0.68 0 0 Z " fill="#F9E7DA" transform="translate(124,217)"/>
<path d="M0 0 C0.33 0 0.66 0 1 0 C1 3.63 1 7.26 1 11 C2.65 11 4.3 11 6 11 C6 11.66 6 12.32 6 13 C3.69 13.33 1.38 13.66 -1 14 C-0.67 9.38 -0.34 4.76 0 0 Z " fill="#C9A697" transform="translate(258,242)"/>
<path d="M0 0 C0.66 0.33 1.32 0.66 2 1 C2.36923077 8.50769231 2.36923077 8.50769231 0.5 11 C0.005 11.33 -0.49 11.66 -1 12 C-1 11.01 -1 10.02 -1 9 C-1.66 9 -2.32 9 -3 9 C-3 8.34 -3 7.68 -3 7 C-2.34 6.67 -1.68 6.34 -1 6 C-0.34227572 2.97065509 -0.34227572 2.97065509 0 0 Z " fill="#FBF5F0" transform="translate(87,245)"/>
<path d="M0 0 C2.375 -0.125 2.375 -0.125 5 0 C7 2 7 2 7.1953125 4.1640625 C7.17210938 4.97617188 7.14890625 5.78828125 7.125 6.625 C7.10695313 7.44226563 7.08890625 8.25953125 7.0703125 9.1015625 C7.03550781 10.04128906 7.03550781 10.04128906 7 11 C6.01 11.495 6.01 11.495 5 12 C4.97421875 11.38511719 4.9484375 10.77023438 4.921875 10.13671875 C4.7185352 5.00745409 4.7185352 5.00745409 1.9375 0.9375 C1.298125 0.628125 0.65875 0.31875 0 0 Z " fill="#A9715D" transform="translate(78,241)"/>
<path d="M0 0 C0.33 0 0.66 0 1 0 C1.4560284 5.70035501 0.60412752 8.54784247 -3 13 C-3.99 13.495 -3.99 13.495 -5 14 C-3.45730076 9.27934033 -1.92205381 4.58335908 0 0 Z " fill="#BF735A" transform="translate(232,139)"/>
<path d="M0 0 C0.66 0.33 1.32 0.66 2 1 C2.484375 3.21484375 2.484375 3.21484375 2.75 5.9375 C2.89695312 7.28134766 2.89695312 7.28134766 3.046875 8.65234375 C3 11 3 11 1 13 C-1.68839385 13.26991906 -4.29141936 13.08737357 -7 13 C-4 11 -4 11 0 10 C0 6.7 0 3.4 0 0 Z " fill="#D7BDB0" transform="translate(81,243)"/>
<path d="M0 0 C1.98 0 3.96 0 6 0 C5.34 0.66 4.68 1.32 4 2 C4.32041397 4.60280568 4.32041397 4.60280568 5 7 C4.401875 6.649375 3.80375 6.29875 3.1875 5.9375 C0.89186786 4.66695302 0.89186786 4.66695302 -2 6 C-1.49396008 3.83125748 -1.00016187 2.00032373 0 0 Z " fill="#E9D4C9" transform="translate(116,240)"/>
<path d="M0 0 C2.97 0.495 2.97 0.495 6 1 C6 2.32 6 3.64 6 5 C6.66 5 7.32 5 8 5 C8.33 6.65 8.66 8.3 9 10 C5.01930733 7.12505529 2.56428003 4.17882671 0 0 Z " fill="#B65B3D" transform="translate(84,186)"/>
<path d="M0 0 C0.99 0 1.98 0 3 0 C3.66 2.97 4.32 5.94 5 9 C4.01 9.33 3.02 9.66 2 10 C0.39644899 6.49223216 -0.22036864 3.85645121 0 0 Z " fill="#B8836F" transform="translate(30,233)"/>
<path d="M0 0 C0.33 2.64 0.66 5.28 1 8 C0.34 8 -0.32 8 -1 8 C-1.33 6.02 -1.66 4.04 -2 2 C-4.64 2 -7.28 2 -10 2 C-10 1.67 -10 1.34 -10 1 C-6.59437148 0.22157062 -3.49234244 -0.09978121 0 0 Z " fill="#BC745B" transform="translate(155,13)"/>
<path d="M0 0 C1.65 0 3.3 0 5 0 C4.67 0.99 4.34 1.98 4 3 C3.34 3 2.68 3 2 3 C1.67 4.98 1.34 6.96 1 9 C1.66 9 2.32 9 3 9 C3 9.99 3 10.98 3 12 C2.01 12 1.02 12 0 12 C0 8.04 0 4.08 0 0 Z " fill="#FAEEE5" transform="translate(110,242)"/>
<path d="M0 0 C1.47193312 2.94386623 0.84936173 5.37390036 0.5625 8.625 C0.40974609 10.40777344 0.40974609 10.40777344 0.25390625 12.2265625 C0.12822266 13.59941406 0.12822266 13.59941406 0 15 C-2.2012803 11.69807955 -2.76868654 9.93232882 -3 6 C-1.5625 2.625 -1.5625 2.625 0 0 Z " fill="#B95D41" transform="translate(251,84)"/>
<path d="M0 0 C2.625 0.375 2.625 0.375 5 1 C5 1.66 5 2.32 5 3 C3.35 3 1.7 3 0 3 C0 5.64 0 8.28 0 11 C-0.33 11 -0.66 11 -1 11 C-1.22174933 9.54364629 -1.42698698 8.08477044 -1.625 6.625 C-1.74101562 5.81289062 -1.85703125 5.00078125 -1.9765625 4.1640625 C-1.98429688 3.44992188 -1.99203125 2.73578125 -2 2 C-1.34 1.34 -0.68 0.68 0 0 Z " fill="#CBACA0" transform="translate(233,230)"/>
<path d="M0 0 C0.33 0 0.66 0 1 0 C1 1.65 1 3.3 1 5 C1.66 5 2.32 5 3 5 C3 5.66 3 6.32 3 7 C0.69 7 -1.62 7 -4 7 C-4 6.34 -4 5.68 -4 5 C-3.34 4.67 -2.68 4.34 -2 4 C-0.86649466 1.98330173 -0.86649466 1.98330173 0 0 Z " fill="#BEA398" transform="translate(24,249)"/>
<path d="M0 0 C0.66 0 1.32 0 2 0 C2.433125 1.6396875 2.433125 1.6396875 2.875 3.3125 C3.81893204 7.04013845 3.81893204 7.04013845 6 10 C4.125 9.6875 4.125 9.6875 2 9 C-0.29013653 5.5647952 -0.17842973 4.014669 0 0 Z " fill="#AE7A67" transform="translate(175,245)"/>
<path d="M0 0 C1.32 0.33 2.64 0.66 4 1 C4 3.97 4 6.94 4 10 C3.01 10.495 3.01 10.495 2 11 C1.34 7.37 0.68 3.74 0 0 Z " fill="#AA725C" transform="translate(185,242)"/>
<path d="M0 0 C2.0625 0.6875 2.0625 0.6875 5.0625 2.6875 C5.0625 3.3475 5.0625 4.0075 5.0625 4.6875 C2.7525 5.0175 0.4425 5.3475 -1.9375 5.6875 C-0.6175 5.3575 0.7025 5.0275 2.0625 4.6875 C1.7325 4.0275 1.4025 3.3675 1.0625 2.6875 C-0.5875 2.6875 -2.2375 2.6875 -3.9375 2.6875 C-3.9375 2.0275 -3.9375 1.3675 -3.9375 0.6875 C-1.9375 -0.3125 -1.9375 -0.3125 0 0 Z " fill="#B99488" transform="translate(302.9375,240.3125)"/>
<path d="M0 0 C1.32 0.33 2.64 0.66 4 1 C3.27683594 1.61488281 3.27683594 1.61488281 2.5390625 2.2421875 C1.90742187 2.78101562 1.27578125 3.31984375 0.625 3.875 C-0.00148438 4.40867187 -0.62796875 4.94234375 -1.2734375 5.4921875 C-2.55836651 6.61432007 -3.79371975 7.79371975 -5 9 C-5 7.35 -5 5.7 -5 4 C-4.360625 3.71125 -3.72125 3.4225 -3.0625 3.125 C-0.84793921 2.17176549 -0.84793921 2.17176549 0 0 Z " fill="#B35639" transform="translate(119,66)"/>
<path d="M0 0 C0 0.66 0 1.32 0 2 C-1.58086048 2.36504603 -3.16483907 2.71660506 -4.75 3.0625 C-5.63171875 3.25972656 -6.5134375 3.45695312 -7.421875 3.66015625 C-9.98679028 3.99825872 -11.57091639 3.81158635 -14 3 C-12.4188708 2.49307308 -10.83498617 1.99473557 -9.25 1.5 C-7.92742187 1.08234375 -7.92742187 1.08234375 -6.578125 0.65625 C-4 0 -4 0 0 0 Z " fill="#B56749" transform="translate(145,15)"/>
<path d="M0 0 C2.64 0 5.28 0 8 0 C7.01 1.485 7.01 1.485 6 3 C2.375 3.1875 2.375 3.1875 -1 3 C-0.67 2.01 -0.34 1.02 0 0 Z " fill="#BE9989" transform="translate(300,253)"/>
<path d="M0 0 C0.33 0.66 0.66 1.32 1 2 C1.66 2.33 2.32 2.66 3 3 C2.67 4.98 2.34 6.96 2 9 C1.34 8.01 0.68 7.02 0 6 C-0.66 7.32 -1.32 8.64 -2 10 C-3 8 -3 8 -2.44140625 6.0546875 C-2.15136719 5.33539063 -1.86132812 4.61609375 -1.5625 3.875 C-1.27503906 3.15054688 -0.98757812 2.42609375 -0.69140625 1.6796875 C-0.46324219 1.12539062 -0.23507813 0.57109375 0 0 Z " fill="#F8E8DF" transform="translate(173,242)"/>
<path d="M0 0 C0.99 0 1.98 0 3 0 C3.1875 2.8125 3.1875 2.8125 3 6 C2.01 6.99 1.02 7.98 0 9 C0 6.03 0 3.06 0 0 Z " fill="#FEFBF7" transform="translate(57,242)"/>
<path d="M0 0 C8.03501094 -0.63019694 8.03501094 -0.63019694 12.0625 2 C12.701875 2.66 13.34125 3.32 14 4 C12.41532272 3.71572583 10.8322943 3.42225182 9.25 3.125 C7.92742187 2.88136719 7.92742187 2.88136719 6.578125 2.6328125 C4.13052256 2.03203736 2.19400143 1.22002883 0 0 Z " fill="#EDD3C5" transform="translate(60,126)"/>
<path d="M0 0 C1.67542976 0.28604898 3.34385343 0.61781233 5 1 C3.68 1.33 2.36 1.66 1 2 C0.67 4.97 0.34 7.94 0 11 C-0.33 11 -0.66 11 -1 11 C-1.02688151 9.35425434 -1.04634123 7.70838587 -1.0625 6.0625 C-1.07410156 5.14597656 -1.08570313 4.22945312 -1.09765625 3.28515625 C-1 1 -1 1 0 0 Z " fill="#FBE0D2" transform="translate(214,243)"/>
<path d="M0 0 C5.73842251 -0.20413361 10.60539047 -0.27141454 16 2 C16 2.66 16 3.32 16 4 C14.5459375 3.5359375 14.5459375 3.5359375 13.0625 3.0625 C8.76335509 1.82032903 4.44657366 1.38315147 0 1 C0 0.67 0 0.34 0 0 Z " fill="#B56D54" transform="translate(221,188)"/>
<path d="M0 0 C0.99 0 1.98 0 3 0 C3.33 1.65 3.66 3.3 4 5 C2.35 5 0.7 5 -1 5 C-0.67 3.35 -0.34 1.7 0 0 Z " fill="#FBEFE6" transform="translate(29,241)"/>
<path d="M0 0 C2.64 1.98 5.28 3.96 8 6 C4.37673261 7.2077558 3.35853631 6.54311128 0 5 C0 3.35 0 1.7 0 0 Z " fill="#B85F43" transform="translate(254,104)"/>
<path d="M0 0 C0.33 0.99 0.66 1.98 1 3 C-1 5 -1 5 -2.9453125 5.1953125 C-4.96354167 5.13020833 -6.98177083 5.06510417 -9 5 C-8.443125 4.731875 -7.88625 4.46375 -7.3125 4.1875 C-4.80287477 2.89877353 -2.40665764 1.47073522 0 0 Z " fill="#C1735A" transform="translate(80,94)"/>
<path d="M0 0 C0.99 0.33 1.98 0.66 3 1 C2.01 2.32 1.02 3.64 0 5 C-3.875 3.25 -3.875 3.25 -5 1 C-2.525 1.495 -2.525 1.495 0 2 C0 1.34 0 0.68 0 0 Z " fill="#B86C53" transform="translate(242,191)"/>
<path d="M0 0 C0.66 0 1.32 0 2 0 C2.1875 3.3125 2.1875 3.3125 2 7 C1.01 7.99 0.02 8.98 -1 10 C-0.67 6.7 -0.34 3.4 0 0 Z " fill="#C37D64" transform="translate(234,128)"/>
<path d="M0 0 C0 3.69418201 -1.28179295 5.77836178 -3 9 C-3.33 9 -3.66 9 -4 9 C-3.67 6.36 -3.34 3.72 -3 1 C-2.01 0.67 -1.02 0.34 0 0 Z " fill="#C0765D" transform="translate(107,84)"/>
<path d="M0 0 C1.32 0.33 2.64 0.66 4 1 C1.36 2.65 -1.28 4.3 -4 6 C-4 4.68 -4 3.36 -4 2 C-2.68 2 -1.36 2 0 2 C0 1.34 0 0.68 0 0 Z " fill="#B75B3C" transform="translate(127,60)"/>
<path d="M0 0 C-1 3 -1 3 -2.8125 4.25 C-5.33943414 5.11637742 -6.52221994 4.88492145 -9 4 C-2.25 0 -2.25 0 0 0 Z " fill="#F8E4D9" transform="translate(139,57)"/>
<path d="M0 0 C2 3 2 3 2 5 C3.65 4.67 5.3 4.34 7 4 C7 4.66 7 5.32 7 6 C4.36 6 1.72 6 -1 6 C-0.67 4.02 -0.34 2.04 0 0 Z " fill="#CEB4A5" transform="translate(35,250)"/>
<path d="M0 0 C0 1.65 0 3.3 0 5 C-1.65 5 -3.3 5 -5 5 C-2.74193548 0 -2.74193548 0 0 0 Z " fill="#FAE8E0" transform="translate(120,248)"/>
<path d="M0 0 C0.75 1.75 0.75 1.75 1 4 C-0.9375 6.25 -0.9375 6.25 -3 8 C-3.33 7.34 -3.66 6.68 -4 6 C-2.68 4.02 -1.36 2.04 0 0 Z " fill="#EACCBD" transform="translate(182,121)"/>
<path d="M0 0 C1 3 1 3 0.0625 5.1875 C-0.4634375 6.0846875 -0.4634375 6.0846875 -1 7 C-2.32 6.67 -3.64 6.34 -5 6 C-3.35 4.02 -1.7 2.04 0 0 Z " fill="#B39285" transform="translate(166,257)"/>
<path d="M0 0 C0.66 0 1.32 0 2 0 C1.67 2.97 1.34 5.94 1 9 C-1 6 -1 6 -0.625 2.8125 C-0.41875 1.884375 -0.2125 0.95625 0 0 Z " fill="#FEF9F3" transform="translate(253,242)"/>
<path d="M0 0 C1.65 0 3.3 0 5 0 C5.33 0.99 5.66 1.98 6 3 C4.02 3 2.04 3 0 3 C0 2.01 0 1.02 0 0 Z " fill="#FBEEE2" transform="translate(142,242)"/>
<path d="M0 0 C0.33 0.99 0.66 1.98 1 3 C-3.1077065 4.58706842 -4.59232396 5.10191901 -9 4 C-6.03 2.68 -3.06 1.36 0 0 Z " fill="#BC7157" transform="translate(123,43)"/>
<path d="M0 0 C2.25 -0.25 2.25 -0.25 5 0 C7.3125 2 7.3125 2 9 4 C4.545 3.01 4.545 3.01 0 2 C0 1.34 0 0.68 0 0 Z " fill="#F5E2D4" transform="translate(192,14)"/>
</svg>
